<svg width="75" height="75" viewBox="0 0 75 75" fill="none" xmlns="http://www.w3.org/2000/svg">
<path d="M18.6768 4.61426H12.8174C5.75008 4.61426 0 10.3643 0 17.4316V65.7715C0 68.8007 2.46391 71.2646 5.49316 71.2646H26.001C29.0302 71.2646 31.4941 68.8007 31.4941 65.7715V17.4316C31.4941 10.3643 25.7441 4.61426 18.6768 4.61426ZM11.6163 6.88133C10.9583 11.7382 7.12395 15.5725 2.26707 16.2306C2.82097 11.3325 6.71825 7.43523 11.6163 6.88133ZM2.19727 35.5957C2.19727 33.593 2.63443 31.6904 3.41778 29.9784L6.30627 34.0885C6.02245 34.5749 5.85938 35.1397 5.85938 35.7422V51.8555C5.85938 52.3567 5.97267 52.8322 6.17352 53.2579L2.82097 58.0296C2.42901 57.4871 2.19727 56.8222 2.19727 56.1035V35.5957ZM9.15527 55.1514H22.3389C22.8413 55.1514 23.3173 55.0381 23.7436 54.8361L26.8684 59.2827C26.5921 59.3582 26.3014 59.3994 26.001 59.3994H5.49316C5.19276 59.3994 4.90208 59.3582 4.6257 59.2827L7.75051 54.8361C8.1768 55.0381 8.65288 55.1514 9.15527 55.1514ZM8.05664 51.8555V35.7422C8.05664 35.1362 8.54931 34.6436 9.15527 34.6436H22.3389C22.9448 34.6436 23.4375 35.1362 23.4375 35.7422V51.8555C23.4375 52.4614 22.9448 52.9541 22.3389 52.9541H9.15527C8.54931 52.9541 8.05664 52.4614 8.05664 51.8555ZM23.5062 32.6603C23.1428 32.5224 22.7497 32.4463 22.3389 32.4463H9.15527C8.74443 32.4463 8.35133 32.5224 7.98798 32.6603L4.62227 27.8704C7.07188 24.3525 11.1448 22.0459 15.7471 22.0459C20.3493 22.0459 24.4223 24.3525 26.8719 27.8704L23.5062 32.6603ZM29.2969 65.7715C29.2969 67.5888 27.8183 69.0674 26.001 69.0674H5.49316C3.67584 69.0674 2.19727 67.5888 2.19727 65.7715V60.4952C3.11623 61.1864 4.2572 61.5967 5.49316 61.5967H26.001C27.2369 61.5967 28.3779 61.1864 29.2969 60.4952V65.7715ZM29.2969 56.1035C29.2969 56.8222 29.0651 57.4871 28.6732 58.029L25.3206 53.2579C25.5215 52.8322 25.6348 52.3567 25.6348 51.8555V35.7422C25.6348 35.1397 25.4717 34.5749 25.1879 34.0885L28.0764 29.9784C28.8597 31.6904 29.2969 33.593 29.2969 35.5957V56.1035ZM29.2969 27.5814C26.5509 22.9563 21.5052 19.8486 15.7471 19.8486C9.98898 19.8486 4.94328 22.9563 2.19727 27.5814V18.4507C8.32615 17.795 13.1807 12.9404 13.8371 6.81152H18.096C18.4078 9.70631 19.6678 12.4134 21.7106 14.5254C23.7539 16.6386 26.4175 17.9884 29.2969 18.3958V27.5814ZM20.3281 6.94084C24.9887 7.67155 28.6509 11.4447 29.2179 16.1568C24.6225 15.3259 20.9965 11.5665 20.3281 6.94084Z" fill="#E83B69" fill-opacity="0.8"/>
<path d="M62.1826 4.61426H56.3232C49.2559 4.61426 43.5059 10.3643 43.5059 17.4316V65.7715C43.5059 68.8007 45.9698 71.2646 48.999 71.2646H69.5068C72.5361 71.2646 75 68.8007 75 65.7715V17.4316C75 10.3643 69.2499 4.61426 62.1826 4.61426ZM72.7238 16.1568C68.1284 15.3259 64.5023 11.5665 63.834 6.94084C68.4946 7.67155 72.1567 11.4447 72.7238 16.1568ZM55.1222 6.88133C54.4641 11.7382 50.6298 15.5725 45.7729 16.2306C46.3268 11.3325 50.2241 7.43523 55.1222 6.88133ZM45.7031 35.5957C45.7031 33.593 46.1403 31.6904 46.9236 29.9784L49.8121 34.0885C49.5283 34.5749 49.3652 35.1397 49.3652 35.7422V51.8555C49.3652 52.3567 49.4785 52.8322 49.6794 53.2579L46.3268 58.0296C45.9349 57.4871 45.7031 56.8222 45.7031 56.1035V35.5957ZM52.6611 55.1514H65.8447C66.3471 55.1514 66.8232 55.0381 67.2495 54.8361L70.3743 59.2827C70.0979 59.3582 69.8072 59.3994 69.5068 59.3994H48.999C48.6986 59.3994 48.4079 59.3582 48.1316 59.2827L51.2564 54.8361C51.6827 55.0381 52.1587 55.1514 52.6611 55.1514ZM51.5625 51.8555V35.7422C51.5625 35.1362 52.0552 34.6436 52.6611 34.6436H65.8447C66.4507 34.6436 66.9434 35.1362 66.9434 35.7422V51.8555C66.9434 52.4614 66.4507 52.9541 65.8447 52.9541H52.6611C52.0552 52.9541 51.5625 52.4614 51.5625 51.8555ZM67.012 32.6603C66.6487 32.5224 66.2556 32.4463 65.8447 32.4463H52.6611C52.2503 32.4463 51.8572 32.5224 51.4938 32.6603L48.1281 27.8704C50.5777 24.3525 54.6507 22.0459 59.2529 22.0459C63.8552 22.0459 67.9281 24.3525 70.3777 27.8704L67.012 32.6603ZM72.8027 65.7715C72.8027 67.5888 71.3242 69.0674 69.5068 69.0674H48.999C47.1817 69.0674 45.7031 67.5888 45.7031 65.7715V60.4952C46.6221 61.1864 47.7631 61.5967 48.999 61.5967H69.5068C70.7428 61.5967 71.8838 61.1864 72.8027 60.4952V65.7715ZM72.8027 56.1035C72.8027 56.8222 72.571 57.4871 72.179 58.029L68.8265 53.2579C69.0273 52.8322 69.1406 52.3567 69.1406 51.8555V35.7422C69.1406 35.1397 68.9775 34.5749 68.6937 34.0885L71.5822 29.9784C72.3656 31.6904 72.8027 33.593 72.8027 35.5957V56.1035ZM72.8027 27.5814C70.0567 22.9563 65.011 19.8486 59.2529 19.8486C53.4948 19.8486 48.4491 22.9563 45.7031 27.5814V18.4507C51.832 17.795 56.6866 12.9404 57.3429 6.81152H61.6018C61.9137 9.70631 63.1737 12.4134 65.2164 14.5254C67.2598 16.6386 69.9234 17.9884 72.8027 18.3958V27.5814Z" fill="#E83B69" fill-opacity="0.8"/>
<path d="M36.4746 72.8027H38.6719V75H36.4746V72.8027Z" fill="#E83B69" fill-opacity="0.8"/>
<path d="M36.4746 4.39453H38.6719V70.6055H36.4746V4.39453Z" fill="#E83B69" fill-opacity="0.8"/>
<path d="M36.4746 0H38.6719V2.19727H36.4746V0Z" fill="#E83B69" fill-opacity="0.8"/>
<path d="M4.32129 64.6729H6.51855V66.8701H4.32129V64.6729Z" fill="#E83B69" fill-opacity="0.8"/>
<path d="M24.9756 64.6729H27.1729V66.8701H24.9756V64.6729Z" fill="#E83B69" fill-opacity="0.8"/>
<path d="M48.1201 64.6729H50.3174V66.8701H48.1201V64.6729Z" fill="#E83B69" fill-opacity="0.8"/>
<path d="M68.7744 64.6729H70.9717V66.8701H68.7744V64.6729Z" fill="#E83B69" fill-opacity="0.8"/>
</svg>
