<svg width="70" height="75" viewBox="0 0 70 75" fill="none" xmlns="http://www.w3.org/2000/svg">
<path d="M29.2951 74.9999C21.0574 74.9999 13.1485 71.819 7.59648 66.273C7.14572 65.8227 7.18323 65.1265 7.68023 64.7179C8.17723 64.3097 8.94553 64.3433 9.39645 64.7938C14.4889 69.8809 21.7416 72.7984 29.2951 72.7984C33.5914 72.7984 37.8655 71.8564 41.6549 70.0744C45.32 68.351 48.5488 65.8406 50.9917 62.8143C51.395 62.315 51.5594 61.7034 51.4548 61.0921C51.35 60.4809 50.9888 59.943 50.4377 59.5776C49.8865 59.2123 49.2107 59.0625 48.5366 59.1581C47.8618 59.2529 47.2683 59.5801 46.8651 60.0795C42.777 65.143 36.2088 68.166 29.2951 68.166C17.3008 68.166 7.54264 59.325 7.54264 48.4579C7.54264 44.6941 8.71692 41.0361 10.9384 37.8791C13.1029 34.8029 16.1556 32.3328 19.7662 30.7359C20.7028 30.3215 21.2807 29.4051 21.1937 28.4622C21.1075 27.5271 20.3833 26.7158 19.3952 26.4404C18.7775 26.2683 18.104 26.3165 17.5234 26.5732C13.0661 28.5445 9.29832 31.5929 6.62738 35.389C3.88159 39.2911 2.43003 43.8101 2.43003 48.458C2.43003 53.0679 3.86526 57.5578 6.58033 61.4425C6.93942 61.9562 6.77079 62.6362 6.20394 62.9614C5.6371 63.2869 4.88658 63.1341 4.52749 62.6204C1.56554 58.3828 0 53.4855 0 48.458C0 43.39 1.58316 38.4615 4.57826 34.2054C7.4901 30.0672 11.5977 26.744 16.4573 24.5946C17.654 24.0654 19.007 23.9896 20.2665 24.3822C21.5261 24.7746 22.5414 25.5881 23.1257 26.6725C23.7099 27.7568 23.7933 28.9825 23.36 30.1238C22.9269 31.2649 22.0292 32.1848 20.8323 32.7142C17.6243 34.1333 14.9115 36.3286 12.9875 39.0628C11.0152 41.8655 9.97268 45.1142 9.97268 48.458C9.97268 58.1112 18.6408 65.9646 29.2952 65.9646C35.4368 65.9646 41.2718 63.2787 44.9039 58.7799C45.6903 57.8058 46.8481 57.1675 48.1643 56.9827C49.4796 56.7977 50.7974 57.0881 51.8724 57.8009C52.9474 58.5133 53.6518 59.5623 53.8559 60.7546C54.0601 61.9472 53.7395 63.1404 52.9529 64.1143C50.2899 67.4128 46.7703 70.1495 42.7744 72.0285C38.6404 73.9723 33.9794 74.9999 29.2951 74.9999Z" fill="#E83B69" fill-opacity="0.8"/>
<path d="M34.5011 14.0663C30.2206 14.0663 26.7384 10.9112 26.7384 7.033C26.7386 3.15497 30.2208 0 34.5011 0C38.7815 0 42.2639 3.15497 42.2639 7.03314C42.2639 10.9112 38.7815 14.0663 34.5011 14.0663ZM34.5011 2.20151C31.5606 2.20151 29.1684 4.36889 29.1684 7.033C29.1684 9.69725 31.5608 11.8646 34.5011 11.8646C37.4417 11.8646 39.8339 9.6971 39.8339 7.033C39.8341 4.36903 37.4417 2.20151 34.5011 2.20151Z" fill="#E83B69" fill-opacity="0.8"/>
<path d="M64.6786 53.6377C64.1858 53.6377 63.7224 53.3643 63.54 52.9214L61.0928 46.977C60.3776 45.2092 58.5066 44.0252 56.4352 44.025H40.6752C40.0041 44.025 39.4602 43.5323 39.4602 42.9242V32.5029C39.4602 31.8948 40.0041 31.402 40.6752 31.402H55.3995C56.813 31.402 57.9631 30.36 57.9631 29.0792C57.9631 27.7985 56.813 26.7566 55.3995 26.7566H40.6752C40.0041 26.7566 39.4602 26.2638 39.4602 25.6558V23.4001C39.4602 20.9226 37.2357 18.9071 34.5012 18.9071C31.7669 18.9071 29.5423 20.9226 29.5423 23.4001V35.2976C29.5423 35.9057 28.9985 36.3985 28.3273 36.3985C27.6562 36.3985 27.1123 35.9057 27.1123 35.2976V23.4001C27.1123 19.7087 30.4269 16.7054 34.5012 16.7054C38.5755 16.7054 41.8902 19.7087 41.8902 23.4001V24.5549H55.3996C58.153 24.5549 60.3931 26.5845 60.3931 29.0792C60.3931 31.574 58.153 33.6037 55.3996 33.6037H41.8902V41.8234H56.4352C59.522 41.8235 62.3096 43.5876 63.372 46.2134L65.8168 52.152C66.0512 52.7216 65.7317 53.3556 65.103 53.568C64.9631 53.6155 64.8197 53.6377 64.6786 53.6377Z" fill="#E83B69" fill-opacity="0.8"/>
<path d="M65.0012 67.6505C64.2856 67.6505 63.5726 67.5093 62.9042 67.2287C61.694 66.7204 60.7747 65.8157 60.3154 64.6812L55.8156 53.8262C55.0992 52.056 53.2282 50.8721 51.1568 50.8721H34.5016C30.4271 50.8721 27.1125 47.8689 27.1125 44.1773V39.7009C27.1125 39.0929 27.6564 38.6001 28.3276 38.6001C28.9987 38.6001 29.5426 39.0929 29.5426 39.7009V44.1773C29.5426 46.6548 31.7673 48.6704 34.5018 48.6704H51.1571C54.2437 48.6704 57.0316 50.4345 58.0941 53.0603L62.594 63.9152C63.0837 65.1257 64.56 65.7452 65.8867 65.3044C66.5297 65.0909 67.0424 64.6633 67.3303 64.1005C67.6183 63.5377 67.6469 62.9068 67.4112 62.3244L65.2435 57.0588C65.0091 56.4893 65.3286 55.8552 65.9574 55.6428C66.5861 55.4302 67.2857 55.7197 67.5203 56.2895L69.6904 61.5607C70.1518 62.7011 70.0959 63.9298 69.535 65.0263C68.9741 66.1227 67.9756 66.9556 66.7234 67.3718C66.1624 67.5578 65.581 67.6505 65.0012 67.6505Z" fill="#E83B69" fill-opacity="0.8"/>
</svg>
