<svg width="70" height="80" viewBox="0 0 70 80" fill="none" xmlns="http://www.w3.org/2000/svg">
<path d="M38.1736 80H32.0696C31.4079 80 30.8718 79.4753 30.8718 78.8281V63.4609C30.8718 62.8137 31.4079 62.2891 32.0696 62.2891C32.7312 62.2891 33.2674 62.8137 33.2674 63.4609V77.6562H36.9758V2.34375H33.2674V58.3547C33.2674 59.0019 32.7312 59.5266 32.0696 59.5266C31.4079 59.5266 30.8718 59.0019 30.8718 58.3547V1.17188C30.8718 0.524687 31.4079 0 32.0696 0H38.1736C38.835 0 39.3713 0.524687 39.3713 1.17188V78.8281C39.3713 79.4753 38.8352 80 38.1736 80Z" fill="#E83B69" fill-opacity="0.8"/>
<path d="M13.4081 20.2646C17.4351 20.2646 20.7113 17.0593 20.7113 13.1193C20.7113 9.17931 17.435 5.974 13.4081 5.974C9.38122 5.974 6.1051 9.17931 6.1051 13.1193C6.10494 17.0593 9.38106 20.2646 13.4081 20.2646ZM13.4081 8.31775C16.1143 8.31775 18.3157 10.4718 18.3157 13.1193C18.3157 15.7668 16.1143 17.9209 13.4081 17.9209C10.7021 17.9209 8.50063 15.7668 8.50063 13.1193C8.50047 10.4718 10.7021 8.31775 13.4081 8.31775Z" fill="#E83B69" fill-opacity="0.8"/>
<path d="M19.2313 23.8938H16.0181C15.3564 23.8938 14.8203 24.4185 14.8203 25.0657C14.8203 25.7129 15.3564 26.2375 16.0181 26.2375H19.2313C22.0933 26.2375 24.4216 28.5157 24.4216 31.3157V47.7891H20.7114V31.0399C20.7114 30.3927 20.1753 29.868 19.5136 29.868C18.852 29.868 18.3159 30.3927 18.3159 31.0399V47.7883H8.50061V31.0399C8.50061 30.3927 7.96449 29.868 7.30284 29.868C6.6412 29.868 6.10508 30.3927 6.10508 31.0399V47.7891H2.39553V31.3157C2.39553 28.5157 4.72382 26.2375 7.58583 26.2375H10.7974C11.4591 26.2375 11.9952 25.7129 11.9952 25.0657C11.9952 24.4185 11.4591 23.8938 10.7974 23.8938H7.58583C3.40309 23.8938 0 27.2233 0 31.3157V48.961C0 49.6082 0.536119 50.1329 1.19776 50.1329H6.10508V69.8672C6.10508 72.1604 8.01176 74.0258 10.3555 74.0258C11.5527 74.0258 12.6348 73.5383 13.4081 72.7566C14.1814 73.5385 15.2637 74.0258 16.4608 74.0258C18.8046 74.0258 20.7112 72.1604 20.7112 69.8672V50.1329H25.6192C26.2808 50.1329 26.817 49.6082 26.817 48.961V31.3157C26.8171 27.2233 23.414 23.8938 19.2313 23.8938ZM10.3555 71.6822C9.33281 71.6822 8.50061 70.8682 8.50061 69.8674V50.133H12.2103V69.8674C12.2103 70.868 11.3783 71.6822 10.3555 71.6822ZM18.3157 69.8672C18.3157 70.868 17.4835 71.6821 16.4608 71.6821C15.4381 71.6821 14.6058 70.868 14.6058 69.8672V50.1329H18.3157V69.8672Z" fill="#E83B69" fill-opacity="0.8"/>
<path d="M56.4905 20.2646C60.5174 20.2646 63.7935 17.0593 63.7935 13.1193C63.7935 9.17931 60.5173 5.974 56.4905 5.974C52.4635 5.974 49.1874 9.17931 49.1874 13.1193C49.1874 17.0593 52.4637 20.2646 56.4905 20.2646ZM56.4905 8.31775C59.1965 8.31775 61.398 10.4718 61.398 13.1193C61.398 15.7668 59.1965 17.9209 56.4905 17.9209C53.7844 17.9209 51.5829 15.7668 51.5829 13.1193C51.5829 10.4718 53.7844 8.31775 56.4905 8.31775Z" fill="#E83B69" fill-opacity="0.8"/>
<path d="M65.4882 50.133H68.7019C69.5031 50.0436 69.8992 49.6046 69.8904 48.8157C69.8904 48.8157 67.4409 29.7952 67.37 29.5225C66.5293 26.2085 63.5025 23.894 60.0093 23.894H59.1008C58.4392 23.894 57.903 24.4186 57.903 25.0658C57.903 25.713 58.4392 26.2377 59.1008 26.2377H60.0093C62.3994 26.2377 64.4701 27.8207 65.0468 30.0941C65.095 30.2794 67.3451 47.7893 67.3451 47.7893H63.5946L61.7046 30.9124C61.6325 30.2691 61.0409 29.8046 60.3835 29.875C59.7259 29.9455 59.2512 30.5243 59.3233 31.1675L61.3301 49.0879C61.3748 49.4875 61.6206 49.8172 61.9577 49.9935L65.81 53.7626H62.611C62.6059 53.7624 47.0007 53.7626 47.0007 53.7626L50.7532 49.7524C50.9162 49.5786 51.0248 49.3519 51.0571 49.1186L53.5558 31.1983C53.6452 30.5571 53.1864 29.9663 52.5308 29.8788C51.8762 29.7919 51.2716 30.2402 51.1821 30.8815L48.8249 47.7893H45.637C45.637 47.7893 47.8857 30.2794 47.9359 30.0871C48.5108 27.8205 50.5813 26.2375 52.9713 26.2375H53.8816C54.5432 26.2375 55.0793 25.7129 55.0793 25.0657C55.0793 24.4185 54.5432 23.8938 53.8816 23.8938H52.9713C49.4781 23.8938 46.4515 26.2083 45.6127 29.5155C45.5399 29.7952 43.0918 48.8158 43.0918 48.8158C43.0832 49.6046 43.4794 50.0436 44.2803 50.133H47.1494L43.3968 54.1432C42.8187 55.1735 43.1132 55.8279 44.2803 56.1065H49.1873V69.8674C49.1873 72.1605 51.094 74.026 53.4378 74.026C54.6349 74.026 55.7172 73.5385 56.4905 72.7568C57.2638 73.5386 58.346 74.026 59.543 74.026C61.8868 74.026 63.7935 72.1605 63.7935 69.8674V56.1065H68.7017C69.9798 56.1065 70.4154 54.9338 69.5488 54.106L65.4882 50.133ZM53.4378 71.6824C52.415 71.6824 51.5828 70.8683 51.5828 69.8675V56.1066H55.2927V69.8675C55.2927 70.8682 54.4605 71.6824 53.4378 71.6824ZM61.3981 69.8674C61.3981 70.8682 60.5659 71.6822 59.5432 71.6822C58.5204 71.6822 57.6884 70.8682 57.6884 69.8674V56.1065H61.3981V69.8674Z" fill="#E83B69" fill-opacity="0.8"/>
</svg>
