<svg width="55" height="67" viewBox="0 0 55 67" fill="none" xmlns="http://www.w3.org/2000/svg">
<path d="M27.367 49.7092C27.1664 49.7091 26.9709 49.6452 26.8089 49.5266L18.932 43.7696C18.7958 43.6696 18.6888 43.5349 18.6223 43.3795C18.5557 43.2241 18.532 43.0537 18.5537 42.8861L19.0692 38.846C19.1009 38.5971 19.2302 38.371 19.4287 38.2175C19.6271 38.0639 19.8784 37.9955 20.1272 38.0272C20.3761 38.059 20.6022 38.1883 20.7557 38.3867C20.9093 38.5851 20.9777 38.8364 20.946 39.0853L20.5004 42.572L27.3689 47.5922L34.2431 42.572L33.7947 39.072C33.7629 38.8232 33.8312 38.5718 33.9846 38.3733C34.1381 38.1748 34.3641 38.0454 34.613 38.0135C34.8619 37.9817 35.1132 38.05 35.3117 38.2034C35.5102 38.3569 35.6396 38.5829 35.6715 38.8318L36.1908 42.8833C36.2125 43.0509 36.1888 43.2213 36.1222 43.3766C36.0557 43.532 35.9487 43.6667 35.8125 43.7668L27.9318 49.5247C27.7682 49.6453 27.5702 49.71 27.367 49.7092V49.7092Z" fill="#E83B69"/>
<path d="M14.2456 31.7373C14.2248 31.7373 14.204 31.7373 14.1841 31.7373C13.3697 31.6556 12.5693 31.4683 11.8032 31.1801C10.9824 30.9361 10.2386 30.4841 9.64406 29.8678C9.04953 29.2516 8.62443 28.4921 8.41005 27.6631C8.13768 26.4613 8.30889 25.2017 8.89212 24.1162C9.47534 23.0308 10.4313 22.1927 11.5837 21.7566C11.7716 21.6898 11.9637 21.6358 12.1588 21.5948C12.281 21.5653 12.4078 21.5604 12.5319 21.5805C12.656 21.6005 12.7748 21.6451 12.8814 21.7116C12.9881 21.7781 13.0804 21.8651 13.1531 21.9677C13.2257 22.0703 13.2771 22.1863 13.3044 22.309C13.3317 22.4317 13.3342 22.5586 13.3119 22.6823C13.2896 22.8059 13.2429 22.9239 13.1744 23.0294C13.106 23.1348 13.0173 23.2255 12.9134 23.2962C12.8095 23.367 12.6925 23.4163 12.5694 23.4413C12.448 23.4673 12.3283 23.5005 12.2109 23.5406C11.5003 23.8331 10.9153 24.3664 10.5585 25.047C10.2017 25.7276 10.0958 26.5121 10.2594 27.2629C10.4002 27.7608 10.665 28.2148 11.0289 28.5826C11.3928 28.9503 11.8441 29.2198 12.3405 29.3658C12.3745 29.3752 12.4095 29.3866 12.4417 29.3989C13.0431 29.627 13.6707 29.7789 14.3099 29.851C14.5608 29.8589 14.7983 29.9662 14.9701 30.1492C15.1419 30.3322 15.234 30.5759 15.2261 30.8268C15.2182 31.0777 15.1109 31.3151 14.9279 31.4869C14.7449 31.6587 14.5012 31.7508 14.2503 31.7429L14.2456 31.7373Z" fill="#E83B69"/>
<path d="M40.4865 31.7373C40.2356 31.7453 39.9918 31.6532 39.8089 31.4814C39.6259 31.3095 39.5186 31.0721 39.5107 30.8212C39.5028 30.5703 39.5949 30.3266 39.7667 30.1436C39.9385 29.9606 40.176 29.8534 40.4269 29.8455C41.0661 29.7735 41.6937 29.6216 42.2951 29.3933C42.3273 29.381 42.3632 29.3696 42.3973 29.3602C42.8927 29.2136 43.3429 28.9438 43.7059 28.5761C44.0688 28.2084 44.3326 27.7547 44.4727 27.2574C44.6361 26.5148 44.5352 25.7385 44.1874 25.0624C43.8396 24.3863 43.2667 23.8528 42.5675 23.554C42.507 23.5332 42.4342 23.5076 42.3197 23.4773C42.1996 23.4454 42.0871 23.39 41.9884 23.3145C41.8897 23.239 41.8069 23.1448 41.7446 23.0373C41.6823 22.9298 41.6418 22.8111 41.6254 22.6879C41.609 22.5648 41.617 22.4396 41.649 22.3195C41.681 22.1994 41.7363 22.0869 41.8118 21.9882C41.8873 21.8895 41.9815 21.8067 42.0891 21.7444C42.1966 21.6821 42.3153 21.6416 42.4385 21.6252C42.5616 21.6088 42.6868 21.6168 42.8069 21.6488C43.049 21.7141 43.19 21.768 43.19 21.768C45.7185 22.5692 46.7978 25.4572 46.3201 27.6613C46.106 28.4905 45.6811 29.2503 45.0865 29.8668C44.4919 30.4832 43.748 30.9354 42.927 31.1792C42.1612 31.4674 41.3612 31.6547 40.547 31.7364C40.529 31.7373 40.5082 31.7373 40.4865 31.7373V31.7373Z" fill="#E83B69"/>
<path d="M53.5714 66.8112H1.16225C0.911374 66.8112 0.670769 66.7116 0.493369 66.5342C0.31597 66.3568 0.216309 66.1162 0.216309 65.8653V59.2626C0.216309 51.4207 5.67442 44.4112 12.9147 42.9488L15.9568 42.4541C16.2046 42.4139 16.4581 42.4739 16.6617 42.6207C16.8653 42.7675 17.0022 42.9891 17.0423 43.2369C17.0825 43.4846 17.0225 43.7381 16.8757 43.9417C16.7289 44.1453 16.5073 44.2822 16.2596 44.3223L13.2524 44.8104C6.91455 46.0875 2.1082 52.3033 2.1082 59.2626V64.9193H52.6217V59.2626C52.6217 52.3316 47.7823 46.131 41.365 44.8379L38.4562 44.3195C38.3339 44.2977 38.2171 44.252 38.1124 44.1851C38.0078 44.1181 37.9173 44.0312 37.8463 43.9293C37.7752 43.8274 37.7249 43.7125 37.6983 43.5912C37.6716 43.4699 37.6691 43.3445 37.6909 43.2222C37.7127 43.0999 37.7584 42.9831 37.8253 42.8784C37.8923 42.7738 37.9792 42.6834 38.0811 42.6123C38.183 42.5412 38.2978 42.4909 38.4192 42.4643C38.5405 42.4376 38.6659 42.4351 38.7882 42.4569L41.7206 42.98C49.0243 44.45 54.5164 51.4491 54.5164 59.2626V65.8653C54.5164 66.116 54.4169 66.3565 54.2397 66.5338C54.0625 66.7112 53.8222 66.811 53.5714 66.8112V66.8112Z" fill="#E83B69"/>
<path d="M27.3555 42.9457C25.3543 42.9495 23.3927 42.3878 21.6968 41.3253C17.7239 38.8658 12.979 34.5429 12.979 27.9742V24.9784C12.979 24.7275 13.0787 24.4869 13.2561 24.3095C13.4335 24.1321 13.6741 24.0325 13.925 24.0325C14.1758 24.0325 14.4164 24.1321 14.5938 24.3095C14.7712 24.4869 14.8709 24.7275 14.8709 24.9784V27.9723C14.8709 33.6707 19.1277 37.5046 22.6995 39.7191C24.0979 40.5906 25.7125 41.0526 27.3602 41.0526C29.0079 41.0526 30.6226 40.5906 32.0209 39.7191C35.5994 37.4999 39.8628 33.665 39.8628 27.9704V24.9784C39.8628 24.7275 39.9625 24.4869 40.1399 24.3095C40.3173 24.1321 40.5579 24.0325 40.8087 24.0325C41.0596 24.0325 41.3002 24.1321 41.4776 24.3095C41.655 24.4869 41.7547 24.7275 41.7547 24.9784V27.9723C41.7547 34.5344 37.006 38.8564 33.0217 41.3272C31.3219 42.3869 29.3586 42.9478 27.3555 42.9457V42.9457Z" fill="#E83B69"/>
<path d="M31.9489 52.5945C31.7707 52.5946 31.5962 52.5441 31.4457 52.4488L26.8644 49.5599C26.7338 49.4776 26.6253 49.3645 26.5484 49.2306C26.4715 49.0967 26.4286 48.946 26.4234 48.7916C26.4182 48.6373 26.4508 48.4841 26.5184 48.3452C26.5861 48.2064 26.6867 48.0863 26.8115 47.9953L34.6912 42.2534C34.8619 42.1268 35.0711 42.063 35.2834 42.0727C36.4523 42.1313 37.6168 42.2577 38.7711 42.4511C38.9355 42.4764 39.0903 42.5445 39.22 42.6487C39.3497 42.7529 39.4496 42.8895 39.5097 43.0446C39.5697 43.1997 39.5878 43.368 39.5621 43.5323C39.5364 43.6967 39.4678 43.8513 39.3632 43.9807L32.6848 52.2445C32.596 52.354 32.4838 52.4423 32.3565 52.5028C32.2292 52.5634 32.0899 52.5947 31.9489 52.5945V52.5945ZM29.0505 48.701L31.7427 50.4037L36.8394 44.0961C36.41 44.046 35.9767 44.0015 35.535 43.9807L29.0505 48.701Z" fill="#E83B69"/>
<path d="M22.7843 52.5946C22.6431 52.5946 22.5038 52.5629 22.3764 52.5021C22.2491 52.4412 22.137 52.3526 22.0484 52.2427L15.3719 43.9865C15.2673 43.8571 15.1987 43.7024 15.173 43.5381C15.1473 43.3737 15.1654 43.2055 15.2254 43.0504C15.2855 42.8952 15.3854 42.7587 15.5151 42.6545C15.6447 42.5503 15.7996 42.4821 15.964 42.4569C17.118 42.2636 18.2822 42.1372 19.4508 42.0785C19.663 42.0693 19.872 42.133 20.0429 42.2592L27.9236 48.0011C28.0484 48.0921 28.149 48.2122 28.2166 48.351C28.2843 48.4898 28.3169 48.6431 28.3117 48.7974C28.3065 48.9517 28.2635 49.1024 28.1867 49.2364C28.1098 49.3703 28.0013 49.4833 27.8707 49.5657L23.2885 52.4508C23.1373 52.5453 22.9626 52.5951 22.7843 52.5946V52.5946ZM17.8938 44.0924L22.9905 50.4L25.6827 48.6973L19.202 43.9789C18.7565 44.0035 18.3232 44.0442 17.8938 44.0943V44.0924Z" fill="#E83B69"/>
<path d="M11.2477 66.8111C10.9968 66.8111 10.7562 66.7115 10.5788 66.5341C10.4014 66.3567 10.3018 66.1161 10.3018 65.8652V56.9354C10.3018 56.6846 10.4014 56.444 10.5788 56.2666C10.7562 56.0892 10.9968 55.9895 11.2477 55.9895C11.4986 55.9895 11.7392 56.0892 11.9166 56.2666C12.094 56.444 12.1936 56.6846 12.1936 56.9354V65.8652C12.1936 66.1161 12.094 66.3567 11.9166 66.5341C11.7392 66.7115 11.4986 66.8111 11.2477 66.8111Z" fill="#E83B69"/>
<path d="M43.4845 66.8111C43.2336 66.8111 42.993 66.7115 42.8156 66.5341C42.6382 66.3567 42.5386 66.1161 42.5386 65.8652V56.9354C42.5386 56.6846 42.6382 56.444 42.8156 56.2666C42.993 56.0892 43.2336 55.9895 43.4845 55.9895C43.7354 55.9895 43.976 56.0892 44.1534 56.2666C44.3308 56.444 44.4305 56.6846 44.4305 56.9354V65.8652C44.4305 66.1161 44.3308 66.3567 44.1534 66.5341C43.976 66.7115 43.7354 66.8111 43.4845 66.8111Z" fill="#E83B69"/>
<path d="M13.9713 29.8341C13.7735 29.8338 13.5808 29.7714 13.4203 29.6559C13.2598 29.5403 13.1395 29.3774 13.0764 29.1899C11.4184 23.9812 10.5663 18.5496 10.5498 13.0833C10.6188 10.8789 11.4683 8.77068 12.9468 7.13426C14.3802 5.60072 16.0266 4.28119 17.8355 3.21615C19.5057 2.11993 21.351 1.31725 23.2917 0.842775C25.4397 0.465176 27.6425 0.533761 29.7629 1.04426C31.4898 1.38145 33.0313 2.34455 34.0916 3.74872C34.9706 3.15938 36.0008 2.83559 37.059 2.81602C38.5642 2.63347 40.0892 2.9191 41.4263 3.63405C42.7634 4.34899 43.8478 5.45853 44.532 6.81169C44.5395 6.82399 44.5462 6.83629 44.5528 6.84859C45.7764 9.03586 46.1117 11.61 45.4893 14.0378C45.3105 14.5639 45.1011 15.079 44.8621 15.5806C44.5395 16.2086 44.3016 16.8766 44.1545 17.5671C44.1403 17.8907 44.0988 18.2125 44.0306 18.5291C43.9821 18.7436 43.9505 18.9615 43.936 19.1809C43.7681 22.143 43.0629 25.0499 41.8549 27.7597C41.6279 28.3197 41.4321 28.8002 41.3498 29.1105C41.2972 29.3184 41.1742 29.5018 41.0018 29.6294C40.8294 29.757 40.6181 29.821 40.4039 29.8105C40.191 29.8037 39.9867 29.7253 39.824 29.5879C39.6612 29.4506 39.5496 29.2624 39.5071 29.0537C39.1526 26.3389 38.9471 23.6067 38.8913 20.8694V20.8278C38.6738 18.5972 37.6307 16.5283 35.9666 15.0271C34.3024 13.5259 32.1374 12.7008 29.8963 12.7135C29.5964 12.7333 29.2814 12.7135 28.9749 12.722H28.851C26.6651 12.6181 24.4754 12.8167 22.3439 13.3122C21.502 13.4759 17.4637 14.4474 16.3844 18.4345C16.076 19.372 15.3202 25.4024 14.9116 28.9941C14.8874 29.208 14.7909 29.4073 14.6382 29.5589C14.4855 29.7106 14.2856 29.8057 14.0716 29.8285C14.0383 29.8322 14.0048 29.8341 13.9713 29.8341V29.8341ZM29.8972 10.8206C32.6122 10.8115 35.2327 11.8167 37.245 13.6392C39.2574 15.4617 40.5165 17.9701 40.7756 20.6726C40.7756 20.7105 40.786 20.8439 40.7851 20.8817C40.768 21.3225 40.8513 23.0233 40.9743 24.7516C41.6067 22.9374 41.9688 21.04 42.0489 19.1203C42.0654 18.8045 42.1065 18.4905 42.1718 18.181C42.2233 17.9553 42.255 17.7255 42.2664 17.4943C42.2663 17.4512 42.2694 17.4082 42.2759 17.3656C42.4369 16.4725 42.7289 15.608 43.1424 14.8002C43.3489 14.3695 43.5305 13.9274 43.6863 13.4759C44.1587 11.5252 43.8699 9.46778 42.8785 7.72264C42.366 6.68528 41.5403 5.8354 40.5181 5.29333C39.4959 4.75126 38.3291 4.54447 37.1829 4.70224C36.2474 4.75426 35.1576 5.03899 34.853 5.68413C34.7791 5.84064 34.6636 5.97385 34.5191 6.06926C34.3747 6.16467 34.2068 6.21861 34.0339 6.22521C33.8616 6.23025 33.6912 6.18903 33.5403 6.10585C33.3894 6.02267 33.2636 5.90056 33.1759 5.75223C32.7819 5.04249 32.2442 4.42265 31.5973 3.93225C30.9504 3.44185 30.2084 3.09165 29.4186 2.90399C27.5399 2.4433 25.5868 2.37215 23.6795 2.69494C21.9545 3.12634 20.3147 3.84626 18.8297 4.82426C17.1852 5.79017 15.6864 6.98486 14.378 8.3725C13.1997 9.65966 12.5139 11.3217 12.4417 13.0653C12.4839 16.7271 12.8761 20.3764 13.6128 23.9636C13.8279 21.924 14.1487 19.8969 14.5739 17.8906C15.0809 16.2384 16.0399 14.761 17.3426 13.6253C18.6453 12.4896 20.2397 11.7409 21.9456 11.4639C24.2077 10.9382 26.5311 10.7249 28.851 10.8301H28.9645C29.2635 10.8253 29.6078 10.8291 29.8972 10.8216V10.8206Z" fill="#E83B69"/>
</svg>
