<svg width="70" height="70" viewBox="0 0 70 70" fill="none" xmlns="http://www.w3.org/2000/svg">
<path d="M68.871 52.5H67.7419V39.7727C67.7404 38.0857 67.2641 36.4683 66.4175 35.2754C65.5709 34.0825 64.4231 33.4113 63.2258 33.4091V6.36364C63.2242 4.67657 62.7479 3.05924 61.9013 1.86631C61.0547 0.673372 59.9069 0.00220992 58.7097 0H11.2903C10.0931 0.00220992 8.94527 0.673372 8.09867 1.86631C7.25207 3.05924 6.77576 4.67657 6.77419 6.36364V33.4091C5.57692 33.4113 4.42914 34.0825 3.58254 35.2754C2.73594 36.4683 2.25963 38.0857 2.25806 39.7727V52.5H1.12903C0.829594 52.5 0.54242 52.6676 0.330686 52.966C0.118951 53.2643 0 53.669 0 54.0909V60.4545C0 60.8765 0.118951 61.2811 0.330686 61.5795C0.54242 61.8778 0.829594 62.0455 1.12903 62.0455H2.25806V68.4091C2.25806 68.831 2.37702 69.2357 2.58875 69.534C2.80048 69.8324 3.08766 70 3.3871 70H6.77419C7.03514 70.0002 7.28804 69.8728 7.48981 69.6396C7.69157 69.4065 7.8297 69.0819 7.88065 68.7213L8.82903 62.0455H61.171L62.1194 68.7213C62.1703 69.0819 62.3084 69.4065 62.5102 69.6396C62.712 69.8728 62.9649 70.0002 63.2258 70H66.6129C66.9123 70 67.1995 69.8324 67.4112 69.534C67.623 69.2357 67.7419 68.831 67.7419 68.4091V62.0455H68.871C69.1704 62.0455 69.4576 61.8778 69.6693 61.5795C69.8811 61.2811 70 60.8765 70 60.4545V54.0909C70 53.669 69.8811 53.2643 69.6693 52.966C69.4576 52.6676 69.1704 52.5 68.871 52.5ZM9.03226 6.36364C9.03304 5.5201 9.2712 4.71144 9.6945 4.11497C10.1178 3.5185 10.6917 3.18292 11.2903 3.18182H58.7097C59.3083 3.18292 59.8822 3.5185 60.3055 4.11497C60.7288 4.71144 60.967 5.5201 60.9677 6.36364V33.4091H58.7097V27.0455C58.7081 25.3584 58.2318 23.7411 57.3852 22.5481C56.5386 21.3552 55.3908 20.684 54.1936 20.6818H40.6452C39.4479 20.684 38.3001 21.3552 37.4535 22.5481C36.6069 23.7411 36.1306 25.3584 36.129 27.0455V33.4091H33.871V27.0455C33.8694 25.3584 33.3931 23.7411 32.5465 22.5481C31.6999 21.3552 30.5521 20.684 29.3548 20.6818H15.8065C14.6092 20.684 13.4614 21.3552 12.6148 22.5481C11.7682 23.7411 11.2919 25.3584 11.2903 27.0455V33.4091H9.03226V6.36364ZM56.4516 27.0455V33.4091H38.3871V27.0455C38.3879 26.2019 38.626 25.3933 39.0493 24.7968C39.4726 24.2003 40.0465 23.8647 40.6452 23.8636H54.1936C54.7922 23.8647 55.3661 24.2003 55.7894 24.7968C56.2127 25.3933 56.4508 26.2019 56.4516 27.0455ZM31.6129 27.0455V33.4091H13.5484V27.0455C13.5492 26.2019 13.7873 25.3933 14.2106 24.7968C14.6339 24.2003 15.2078 23.8647 15.8065 23.8636H29.3548C29.9535 23.8647 30.5274 24.2003 30.9507 24.7968C31.374 25.3933 31.6121 26.2019 31.6129 27.0455ZM4.51613 39.7727C4.51691 38.9292 4.75507 38.1205 5.17837 37.5241C5.60167 36.9276 6.17556 36.592 6.77419 36.5909H63.2258C63.8244 36.592 64.3983 36.9276 64.8216 37.5241C65.2449 38.1205 65.4831 38.9292 65.4839 39.7727V52.5H4.51613V39.7727ZM5.84839 66.8182H4.51613V62.0455H6.52581L5.84839 66.8182ZM65.4839 66.8182H64.1516L63.4742 62.0455H65.4839V66.8182ZM67.7419 58.8636H2.25806V55.6818H67.7419V58.8636Z" fill="#E83B69" fill-opacity="0.8"/>
</svg>
