<svg width="70" height="75" viewBox="0 0 70 75" fill="none" xmlns="http://www.w3.org/2000/svg">
<path d="M63.4188 0H6.58117C2.94802 0.00420347 0.00379167 3.2682 0 7.29594V21.1583C0.00379167 25.1861 2.94802 28.4501 6.58117 28.4543H63.4188C67.052 28.4501 69.9962 25.1861 70 21.1583V7.29594C69.9962 3.2682 67.052 0.00420347 63.4188 0ZM67.6667 21.1583C67.664 23.758 65.7638 25.8646 63.4188 25.8675H6.58117C4.23617 25.8646 2.33596 23.758 2.33333 21.1583V7.29594C2.33596 4.69625 4.23617 2.58966 6.58117 2.58675H63.4188C65.7638 2.58966 67.664 4.69625 67.6667 7.29594V21.1583Z" fill="#E83B69" fill-opacity="0.8"/>
<path d="M12.7283 30.7889C12.0841 30.7889 11.5617 31.368 11.5617 32.0823V37.627C11.5663 39.5322 10.8833 41.3602 9.66468 42.7035C8.11447 44.3448 5.67439 44.3448 4.12418 42.7035C3.29337 41.778 3.29672 40.281 4.13147 39.36C4.51968 38.9317 5.04176 38.6853 5.58951 38.6721C6.17168 38.663 6.7327 38.9143 7.14585 39.3692L7.24151 39.474C7.70701 39.9679 8.44551 39.9498 8.89103 39.4335C9.3262 38.9293 9.32212 38.1334 8.88184 37.6348L8.79084 37.5352C7.95814 36.6038 6.8237 36.0813 5.64085 36.084H5.54168C3.07505 36.1406 1.1168 38.4032 1.16785 41.1377C1.19176 42.4149 1.65989 43.6327 2.47451 44.5362C4.91562 47.2421 8.87324 47.2421 11.3143 44.5362C12.972 42.709 13.9014 40.2225 13.895 37.6309V32.0823C13.895 31.368 13.3726 30.7889 12.7283 30.7889Z" fill="#E83B69" fill-opacity="0.8"/>
<path d="M21.0001 32.3344C20.3558 32.3344 19.8335 32.9135 19.8335 33.6277V37.9515C19.8444 42.2956 18.287 46.4638 15.5086 49.5272C15.0452 50.0235 15.0323 50.8422 15.48 51.356C15.9277 51.8698 16.6662 51.8841 17.1297 51.3877C17.1395 51.3774 17.149 51.3667 17.1583 51.356C20.3758 47.8089 22.1795 42.9819 22.1668 37.9515V33.6277C22.1668 32.9135 21.6444 32.3344 21.0001 32.3344Z" fill="#E83B69" fill-opacity="0.8"/>
<path d="M29.1667 38.8014C28.5224 38.8014 28 39.3805 28 40.0948V53.0285C28 53.7428 28.5224 54.3219 29.1667 54.3219C29.811 54.3219 30.3333 53.7428 30.3333 53.0285V40.0948C30.3333 39.3805 29.811 38.8014 29.1667 38.8014Z" fill="#E83B69" fill-opacity="0.8"/>
<path d="M29.1667 31.0411C28.5224 31.0411 28 31.6202 28 32.3345V34.9213C28 35.6355 28.5224 36.2146 29.1667 36.2146C29.811 36.2146 30.3333 35.6355 30.3333 34.9213V32.3345C30.3333 31.6202 29.811 31.0411 29.1667 31.0411Z" fill="#E83B69" fill-opacity="0.8"/>
<path d="M67.5125 37.5287C66.6995 36.6305 65.6059 36.1136 64.4583 36.0853C63.2451 36.0606 62.0745 36.5818 61.2138 37.53L61.1182 37.6348C60.6525 38.1285 60.6363 38.9472 61.0817 39.4635C61.5271 39.9797 62.2656 39.9978 62.7312 39.5039C62.7404 39.494 62.7496 39.4841 62.7585 39.474L62.8588 39.364C63.2718 38.9126 63.8307 38.6635 64.4105 38.6721C65.5881 38.6976 66.5241 39.7768 66.501 41.0823C66.4902 41.6936 66.2662 42.2765 65.876 42.7087C64.3258 44.35 61.8857 44.35 60.3355 42.7087C59.1169 41.3654 58.4338 39.5373 58.4385 37.6322V32.0823C58.4385 31.368 57.9161 30.7889 57.2718 30.7889C56.6275 30.7889 56.1051 31.368 56.1051 32.0823V37.627C56.0981 40.2181 57.0267 42.7047 58.6835 44.5324C61.1246 47.2383 65.0822 47.2383 67.5233 44.5324C69.2647 42.595 69.26 39.4594 67.5125 37.5287Z" fill="#E83B69" fill-opacity="0.8"/>
<path d="M54.4916 49.5272C51.7132 46.4638 50.1558 42.2956 50.1668 37.9515V33.6277C50.1668 32.9135 49.6444 32.3344 49.0001 32.3344C48.3558 32.3344 47.8334 32.9135 47.8334 33.6277V37.9515C47.8208 42.9819 49.6244 47.8089 52.8419 51.356C53.3054 51.8524 54.0439 51.8381 54.4916 51.3243C54.9284 50.8232 54.9284 50.0284 54.4916 49.5272Z" fill="#E83B69" fill-opacity="0.8"/>
<path d="M40.8332 38.8014C40.1889 38.8014 39.6665 39.3805 39.6665 40.0948V53.0285C39.6665 53.7428 40.1889 54.3219 40.8332 54.3219C41.4775 54.3219 41.9998 53.7428 41.9998 53.0285V40.0948C41.9998 39.3805 41.4775 38.8014 40.8332 38.8014Z" fill="#E83B69" fill-opacity="0.8"/>
<path d="M40.8332 31.0411C40.1889 31.0411 39.6665 31.6202 39.6665 32.3345V34.9213C39.6665 35.6355 40.1889 36.2146 40.8332 36.2146C41.4775 36.2146 41.9998 35.6355 41.9998 34.9213V32.3345C41.9998 31.6202 41.4775 31.0411 40.8332 31.0411Z" fill="#E83B69" fill-opacity="0.8"/>
<path d="M63.0002 20.6941H7.00016C6.35587 20.6941 5.8335 21.2732 5.8335 21.9875C5.8335 22.7017 6.35587 23.2808 7.00016 23.2808H63.0002C63.6444 23.2808 64.1668 22.7017 64.1668 21.9875C64.1668 21.2732 63.6444 20.6941 63.0002 20.6941Z" fill="#E83B69" fill-opacity="0.8"/>
<path d="M63.0002 15.5205H7.00016C6.35587 15.5205 5.8335 16.0996 5.8335 16.8139C5.8335 17.5282 6.35587 18.1073 7.00016 18.1073H63.0002C63.6444 18.1073 64.1668 17.5282 64.1668 16.8139C64.1668 16.0996 63.6444 15.5205 63.0002 15.5205Z" fill="#E83B69" fill-opacity="0.8"/>
<path d="M61.8332 5.17346H57.1665C55.2335 5.17346 53.6665 6.91063 53.6665 9.05359C53.6665 11.1966 55.2335 12.9337 57.1665 12.9337H61.8332C63.7662 12.9337 65.3332 11.1966 65.3332 9.05359C65.3332 6.91063 63.7662 5.17346 61.8332 5.17346ZM61.8332 10.347H57.1665C56.5222 10.347 55.9998 9.76786 55.9998 9.05359C55.9998 8.33932 56.5222 7.76021 57.1665 7.76021H61.8332C62.4775 7.76021 62.9998 8.33932 62.9998 9.05359C62.9998 9.76786 62.4775 10.347 61.8332 10.347Z" fill="#E83B69" fill-opacity="0.8"/>
<path d="M49 7.76025H46.6667C46.0224 7.76025 45.5 8.33936 45.5 9.05363C45.5 9.7679 46.0224 10.347 46.6667 10.347H49C49.6443 10.347 50.1667 9.7679 50.1667 9.05363C50.1667 8.33936 49.6443 7.76025 49 7.76025Z" fill="#E83B69" fill-opacity="0.8"/>
<path d="M42 7.76025H39.6667C39.0224 7.76025 38.5 8.33936 38.5 9.05363C38.5 9.7679 39.0224 10.347 39.6667 10.347H42C42.6443 10.347 43.1667 9.7679 43.1667 9.05363C43.1667 8.33936 42.6443 7.76025 42 7.76025Z" fill="#E83B69" fill-opacity="0.8"/>
<path d="M62.3163 65.9621L63.8248 64.2898C64.2802 63.7847 64.2802 62.966 63.8248 62.461C63.3692 61.9561 62.6307 61.9561 62.1751 62.461L60.1836 64.6688H59.2853C58.9324 63.5733 58.1546 62.7112 57.1666 62.32V61.3241L59.1581 59.1163C59.6058 58.6025 59.593 57.7838 59.1295 57.2875C58.6775 56.8033 57.9605 56.8033 57.5085 57.2875L56 58.9598L54.4915 57.2875C54.028 56.7911 53.2895 56.8054 52.8418 57.3192C52.405 57.8203 52.405 58.6151 52.8418 59.1163L54.8333 61.3241V62.32C53.8453 62.7112 53.0675 63.5734 52.7146 64.6688H51.8163L49.8248 62.461C49.3613 61.9646 48.6228 61.9789 48.1751 62.4927C47.7384 62.9938 47.7384 63.7886 48.1751 64.2898L49.6836 65.9621L48.1751 67.6345C47.7117 68.1308 47.6988 68.9495 48.1465 69.4633C48.5943 69.9771 49.3327 69.9913 49.7962 69.495C49.8058 69.4847 49.8155 69.474 49.8248 69.4633L51.8163 67.2555H52.7146C53.0675 68.3509 53.8453 69.213 54.8333 69.6043V70.6002L52.8418 72.808C52.3941 73.3218 52.4069 74.1405 52.8704 74.6368C53.3225 75.121 54.0394 75.121 54.4915 74.6368L56 72.9645L57.5085 74.6368C57.9719 75.1332 58.7104 75.1189 59.1581 74.6051C59.5949 74.1039 59.5949 73.3092 59.1581 72.808L57.1666 70.6002V69.6043C58.1548 69.213 58.9324 68.3509 59.2853 67.2555H60.1836L62.1751 69.4633C62.6386 69.9596 63.3771 69.9454 63.8248 69.4316C64.2616 68.9304 64.2616 68.1357 63.8248 67.6345L62.3163 65.9621ZM56 67.2555C55.3557 67.2555 54.8333 66.6764 54.8333 65.9621C54.8333 65.2479 55.3557 64.6688 56 64.6688C56.6442 64.6688 57.1666 65.2479 57.1666 65.9621C57.1666 66.6764 56.6442 67.2555 56 67.2555Z" fill="#E83B69" fill-opacity="0.8"/>
<path d="M28.8248 65.0478L27.3163 63.3755L28.8248 61.7031C29.2725 61.1893 29.2597 60.3706 28.7962 59.8743C28.3441 59.3903 27.6274 59.3903 27.1751 59.8743L25.1836 62.0821H24.2853C23.9324 60.9866 23.1546 60.1246 22.1666 59.7333V58.7374L24.1581 56.5296C24.6058 56.0158 24.593 55.1971 24.1295 54.7008C23.6775 54.2168 22.9607 54.2168 22.5085 54.7008L21 56.3731L19.4915 54.7008C19.028 54.2045 18.2895 54.2187 17.8418 54.7325C17.4052 55.2337 17.4052 56.0283 17.8418 56.5296L19.8333 58.7374V59.7333C18.8453 60.1246 18.0675 60.9868 17.7146 62.0821H16.8163L14.8248 59.8743C14.3613 59.378 13.6228 59.3922 13.1751 59.906C12.7384 60.4072 12.7384 61.202 13.1751 61.7031L14.6836 63.3755L13.1751 65.0478C12.7117 65.5441 12.6988 66.3628 13.1465 66.8766C13.5943 67.3904 14.3327 67.4047 14.7962 66.9083C14.806 66.898 14.8155 66.8873 14.8248 66.8766L16.8163 64.6688H17.7146C18.0675 65.7642 18.8453 66.6264 19.8333 67.0176V68.0135L17.8418 70.2213C17.3941 70.7351 17.4069 71.5538 17.8704 72.0501C18.3225 72.5342 19.0392 72.5342 19.4915 72.0501L21 70.3778L22.5085 72.0501C22.9719 72.5463 23.7104 72.5323 24.1581 72.0185C24.5947 71.5173 24.5947 70.7227 24.1581 70.2213L22.1666 68.0135V67.0176C23.1548 66.6264 23.9324 65.7642 24.2853 64.6688H25.1836L27.1751 66.8766C27.6386 67.3728 28.3772 67.3587 28.8248 66.845C29.2614 66.3436 29.2614 65.549 28.8248 65.0478ZM21 64.6688C20.3557 64.6688 19.8333 64.0897 19.8333 63.3755C19.8333 62.6612 20.3557 62.0821 21 62.0821C21.6442 62.0821 22.1666 62.6612 22.1666 63.3755C22.1666 64.0897 21.6442 64.6688 21 64.6688Z" fill="#E83B69" fill-opacity="0.8"/>
</svg>
