<svg width="70" height="70" viewBox="0 0 70 70" fill="none" xmlns="http://www.w3.org/2000/svg">
<path d="M15.3142 55.0329C14.22 53.9302 12.7653 53.323 11.2182 53.323C10.3043 53.323 9.42324 53.5366 8.62904 53.9373C0.824718 42.7943 0.797647 27.5246 8.69508 16.3546C9.13313 15.7348 8.98984 14.8745 8.37488 14.4329C7.75992 13.9913 6.90625 14.1357 6.46806 14.7555C2.11179 20.9169 -0.123018 28.1929 0.00522461 35.7967C0.127315 43.0329 2.38181 49.8972 6.53547 55.7244C4.885 58.0061 5.08037 61.2305 7.12226 63.2885C8.25156 64.4265 9.73483 64.9955 11.2182 64.9955C12.7016 64.9955 14.1849 64.4265 15.3142 63.2885C17.5726 61.0124 17.5726 57.3091 15.3142 55.0329ZM13.3806 61.3399C12.188 62.5415 10.2481 62.5415 9.05574 61.3399C7.86328 60.1382 7.86328 58.1829 9.05574 56.9813C9.63338 56.3992 10.4013 56.0785 11.2181 56.0785C12.0348 56.0785 12.8029 56.3992 13.3804 56.9813C14.573 58.183 14.573 60.1383 13.3806 61.3399Z" fill="#E83B69" fill-opacity="0.8"/>
<path d="M55.7761 61.8878C55.3344 61.271 54.4799 61.1322 53.8675 61.5779C49.959 64.424 45.5652 66.3096 40.8082 67.1822C39.706 67.3844 38.5819 67.0867 37.7243 66.3655C36.8728 65.6496 36.3846 64.5978 36.3846 63.48V53.3808H36.5039C38.087 53.3808 39.375 52.0829 39.375 50.4874V48.1612C44.0061 46.3797 47.3047 41.8568 47.3047 36.5715V30.0482C49.5081 29.4417 51.1328 27.4079 51.1328 24.9978C51.1328 22.3445 49.1637 20.1473 46.6211 19.8088V11.2196C46.6211 8.94039 44.7812 7.08612 42.5196 7.08612C40.258 7.08612 38.418 8.94039 38.418 11.2196V19.7621H31.582V11.2196C31.582 8.94039 29.7421 7.08612 27.4805 7.08612C25.2189 7.08612 23.3789 8.94039 23.3789 11.2196V19.8088C20.8363 20.1473 18.8672 22.3444 18.8672 24.9978C18.8672 27.4079 20.492 29.4417 22.6953 30.0482V36.5715C22.6953 41.8568 25.9939 46.3797 30.625 48.1612V50.4875C30.625 52.083 31.913 53.3809 33.4961 53.3809H33.6502V63.4801C33.6502 65.4176 34.4966 67.2405 35.9724 68.4815C37.1502 69.4718 38.618 70.0002 40.1257 70.0002C40.5153 70.0002 40.9074 69.965 41.2978 69.8933C46.4592 68.9465 51.227 66.9003 55.4686 63.8115C56.0807 63.3657 56.2182 62.5045 55.7761 61.8878ZM41.1525 11.2196C41.1525 10.4599 41.7658 9.84176 42.5197 9.84176C43.2736 9.84176 43.8869 10.4599 43.8869 11.2196V19.7621H41.1525V11.2196ZM26.1134 11.2196C26.1134 10.4599 26.7267 9.84176 27.4806 9.84176C28.2345 9.84176 28.8478 10.4599 28.8478 11.2196V19.7621H26.1134V11.2196ZM21.6017 24.9978C21.6017 23.6303 22.7057 22.5177 24.0626 22.5177H45.9377C47.2946 22.5177 48.3986 23.6303 48.3986 24.9978C48.3986 26.3653 47.2946 27.4779 45.9377 27.4779H24.0626C22.7057 27.4779 21.6017 26.3653 21.6017 24.9978ZM25.4298 36.5715V30.2335H44.5705V36.5715C44.5705 41.8896 40.2772 46.2163 35.0002 46.2163C29.7231 46.2163 25.4298 41.8896 25.4298 36.5715ZM35.052 50.6253C35.0405 50.625 35.0291 50.6235 35.0177 50.6235C35.0062 50.6235 34.9948 50.625 34.9833 50.6253H33.4965C33.4208 50.6253 33.3595 50.5634 33.3595 50.4875V48.8614C33.8964 48.9339 34.444 48.9719 35.0002 48.9719C35.5563 48.9719 36.1039 48.9339 36.6408 48.8614V50.4875C36.6408 50.5634 36.5795 50.6253 36.5041 50.6253H35.052Z" fill="#E83B69" fill-opacity="0.8"/>
<path d="M59.7151 58.1534C59.1733 57.6436 58.329 57.6633 57.8109 58.1911C57.8004 58.2019 57.7898 58.2129 57.7798 58.2235C57.2646 58.7799 57.2945 59.6516 57.8464 60.1709C58.11 60.4188 58.4448 60.5414 58.779 60.5414C59.1321 60.5414 59.4845 60.4043 59.7507 60.1332C59.7612 60.1224 59.7717 60.1114 59.7817 60.1008C60.297 59.5444 60.267 58.6727 59.7151 58.1534Z" fill="#E83B69" fill-opacity="0.8"/>
<path d="M69.9072 32.618C69.2981 24.1833 65.6905 16.2404 59.7494 10.2528C53.9099 4.36746 46.1092 0.765003 37.7845 0.109297C29.5613 -0.538692 21.3772 1.71019 14.737 6.44108C14.1204 6.88033 13.974 7.74023 14.4098 8.36149C14.8456 8.98275 15.699 9.13059 16.3154 8.6912C29.0129 -0.355166 46.8542 1.15369 57.8159 12.2013C69.144 23.6181 70.5138 41.3472 61.0727 54.3572C60.627 54.9714 60.7597 55.8334 61.3692 56.2827C61.6126 56.4621 61.8952 56.5485 62.1753 56.5485C62.5966 56.5485 63.0122 56.353 63.28 55.9838C68.1565 49.2636 70.5103 40.9656 69.9072 32.618Z" fill="#E83B69" fill-opacity="0.8"/>
<path d="M12.0188 10.4118C11.4824 9.87627 10.6167 9.87985 10.0852 10.4205L10.0629 10.4434C9.53131 10.9838 9.53527 11.8562 10.0715 12.3919C10.3381 12.6581 10.686 12.7911 11.034 12.7911C11.3858 12.7911 11.7377 12.6549 12.0051 12.3832L12.0274 12.3603C12.5589 11.82 12.555 10.9475 12.0188 10.4118Z" fill="#E83B69" fill-opacity="0.8"/>
<path d="M38.0828 36.0611C37.8378 35.6376 37.388 35.3772 36.9015 35.3772H35.9245L37.724 33.0864C38.1927 32.4898 38.0926 31.6231 37.5006 31.151C36.9086 30.6785 36.0487 30.7795 35.58 31.376L32.0264 35.8998C31.701 36.3141 31.6394 36.8794 31.8677 37.355C32.096 37.8306 32.5741 38.1328 33.0984 38.1328H34.5558L32.8816 41.1119C32.5094 41.7741 32.7405 42.6149 33.3973 42.9898C33.6103 43.1113 33.8415 43.169 34.0699 43.169C34.5467 43.1689 35.0095 42.9174 35.261 42.4699L38.0913 37.434C38.3311 37.0074 38.3278 36.4846 38.0828 36.0611Z" fill="#E83B69" fill-opacity="0.8"/>
</svg>
