<svg width="70" height="70" viewBox="0 0 70 70" fill="none" xmlns="http://www.w3.org/2000/svg">
<path d="M50.1666 65.3334H17.5C16.856 65.3334 16.3334 65.8561 16.3334 66.5001V68.8334C16.3334 69.4774 16.856 70.0001 17.5 70.0001C18.1439 70.0001 18.6666 69.4774 18.6666 68.8334V67.6668H50.1666C50.8106 67.6668 51.3332 67.1441 51.3332 66.5002C51.3332 65.8562 50.8107 65.3334 50.1666 65.3334Z" fill="#E83B69" fill-opacity="0.8"/>
<path d="M25.6666 29.1666C25.6666 29.8105 26.1893 30.3332 26.8332 30.3332H31.5C32.1439 30.3332 32.6666 29.8105 32.6666 29.1666V22.1666C32.6666 21.5226 32.1439 20.9999 31.5 20.9999H26.8334C26.1894 20.9999 25.6668 21.5226 25.6668 22.1666V29.1666H25.6666ZM28 23.3333H30.3334V27.9999H28V23.3333Z" fill="#E83B69" fill-opacity="0.8"/>
<path d="M15.1666 14.0001H1.16662C0.522676 14.0001 0 14.5227 0 15.1667V38.5001C0 39.144 0.522676 39.6667 1.16662 39.6667C1.81057 39.6667 2.33324 39.144 2.33324 38.5001V16.3334H15.1666C15.8106 16.3334 16.3332 15.8108 16.3332 15.1668C16.3332 14.5229 15.8107 14.0001 15.1666 14.0001Z" fill="#E83B69" fill-opacity="0.8"/>
<path d="M56 57.1667C56 57.8106 56.5227 58.3333 57.1666 58.3333H61.8332C62.4772 58.3333 62.9999 57.8106 62.9999 57.1667V50.1667C62.9999 49.5227 62.4772 49.0001 61.8332 49.0001H57.1666C56.5227 49.0001 56 49.5227 56 50.1667V57.1667ZM58.3334 51.3334H60.6668V56.0001H58.3334V51.3334Z" fill="#E83B69" fill-opacity="0.8"/>
<path d="M5.83338 42.0001C0.0664453 42.0001 0 57.0151 0 57.1667C0 59.9842 2.00785 62.3397 4.66662 62.8822V68.8334C4.66662 69.4774 5.1893 70.0001 5.83324 70.0001C6.47719 70.0001 6.99986 69.4774 6.99986 68.8334V62.8822C9.65863 62.3397 11.6665 59.9842 11.6665 57.1667C11.6666 57.0151 11.6002 42.0001 5.83338 42.0001ZM5.83338 60.6667C3.90373 60.6667 2.33338 59.0963 2.33338 57.1667C2.33338 51.3544 3.89443 44.3333 5.83338 44.3333C7.77232 44.3333 9.33338 51.3544 9.33338 57.1667C9.33338 59.0963 7.76303 60.6667 5.83338 60.6667Z" fill="#E83B69" fill-opacity="0.8"/>
<path d="M12.8334 35H8.16662C7.52268 35 7 35.5227 7 36.1666V38.5C7 39.1439 7.52268 39.6666 8.16662 39.6666C8.81057 39.6666 9.33324 39.1439 9.33324 38.5V37.3334H11.6666V43.1668C11.6666 43.8107 12.1893 44.3334 12.8332 44.3334C13.4772 44.3334 13.9999 43.8107 13.9999 43.1668V36.1668C14 35.5227 13.4773 35 12.8334 35Z" fill="#E83B69" fill-opacity="0.8"/>
<path d="M57.1666 30.3333H61.8332C62.4772 30.3333 62.9999 29.8106 62.9999 29.1667V22.1667C62.9999 21.5227 62.4772 21.0001 61.8332 21.0001H57.1666C56.5227 21.0001 56 21.5227 56 22.1667V29.1667C56 29.8106 56.5227 30.3333 57.1666 30.3333ZM58.3334 23.3333H60.6668V27.9999H58.3334V23.3333Z" fill="#E83B69" fill-opacity="0.8"/>
<path d="M12.8334 20.9999H8.16662C7.52268 20.9999 7 21.5226 7 22.1666V29.1666C7 29.8105 7.52268 30.3332 8.16662 30.3332H12.8332C13.4772 30.3332 13.9999 29.8105 13.9999 29.1666V22.1666C14 21.5226 13.4773 20.9999 12.8334 20.9999ZM11.6666 27.9999H9.33338V23.3333H11.6668V27.9999H11.6666Z" fill="#E83B69" fill-opacity="0.8"/>
<path d="M37.3334 29.1666C37.3334 29.8105 37.8561 30.3332 38.5 30.3332H43.1666C43.8106 30.3332 44.3332 29.8105 44.3332 29.1666V22.1666C44.3332 21.5226 43.8106 20.9999 43.1666 20.9999H38.5C37.8561 20.9999 37.3334 21.5226 37.3334 22.1666V29.1666ZM39.6666 23.3333H42V27.9999H39.6666V23.3333Z" fill="#E83B69" fill-opacity="0.8"/>
<path d="M68.8334 14.0001H54.8334C54.1894 14.0001 53.6667 14.5227 53.6667 15.1667C53.6667 15.8106 54.1894 16.3333 54.8334 16.3333H67.6667V63.2147C67.3005 63.084 66.9119 63.0001 66.5001 63.0001C66.2983 63.0001 66.0976 63.0176 65.9005 63.0526C65.0955 61.6024 63.5637 60.6667 61.8335 60.6667C60.1033 60.6667 58.5715 61.6024 57.7665 63.0526C57.5694 63.0176 57.3687 63.0001 57.1669 63.0001C55.2372 63.0001 53.6669 64.5704 53.6669 66.5001C53.6669 68.4297 55.2372 70.0001 57.1669 70.0001H66.5C68.4296 70.0001 70 68.4297 70 66.5001V15.1667C70 14.5227 69.4773 14.0001 68.8334 14.0001ZM66.5 67.6667H57.1666C56.5238 67.6667 56 67.1429 56 66.5001C56 65.8572 56.5238 65.3334 57.1666 65.3334C57.3906 65.3334 57.6029 65.3976 57.7989 65.5236C58.1186 65.729 58.5177 65.7663 58.87 65.624C59.2223 65.4816 59.4825 65.1759 59.5677 64.8061C59.8139 63.7433 60.746 63.0001 61.8334 63.0001C62.9207 63.0001 63.8528 63.7433 64.0991 64.8061C64.1842 65.1759 64.4444 65.4816 64.7967 65.624C65.148 65.7663 65.548 65.729 65.8678 65.5236C66.6273 65.0336 67.6667 65.6333 67.6667 66.5001C67.6666 67.1429 67.1428 67.6667 66.5 67.6667Z" fill="#E83B69" fill-opacity="0.8"/>
<path d="M38.5 16.3334H43.1666C43.8106 16.3334 44.3332 15.8107 44.3332 15.1668V8.1668C44.3332 7.52286 43.8106 7.00018 43.1666 7.00018H38.5C37.8561 7.00018 37.3334 7.52286 37.3334 8.1668V15.1668C37.3334 15.8107 37.8561 16.3334 38.5 16.3334ZM39.6666 9.33343H42V14H39.6666V9.33343Z" fill="#E83B69" fill-opacity="0.8"/>
<path d="M37.3334 43.1666C37.3334 43.8106 37.8561 44.3332 38.5 44.3332H43.1666C43.8106 44.3332 44.3332 43.8106 44.3332 43.1666V36.1666C44.3332 35.5227 43.8106 35 43.1666 35H38.5C37.8561 35 37.3334 35.5227 37.3334 36.1666V43.1666ZM39.6666 37.3334H42V42H39.6666V37.3334Z" fill="#E83B69" fill-opacity="0.8"/>
<path d="M26.8334 16.3334H31.5C32.1439 16.3334 32.6666 15.8107 32.6666 15.1668V8.1668C32.6666 7.52286 32.1439 7.00018 31.5 7.00018H26.8334C26.1894 7.00018 25.6667 7.52286 25.6667 8.1668V15.1668C25.6666 15.8107 26.1893 16.3334 26.8334 16.3334ZM28 9.33343H30.3334V14H28V9.33343Z" fill="#E83B69" fill-opacity="0.8"/>
<path d="M34.1716 56.3383C33.9616 56.56 33.8333 56.8633 33.8333 57.1667C33.8333 57.4701 33.9616 57.7733 34.1716 57.9951C34.3932 58.2051 34.6966 58.3335 35 58.3335C35.3034 58.3335 35.6066 58.2051 35.8284 57.9951C36.0384 57.7735 36.1668 57.4701 36.1668 57.1667C36.1668 56.8633 36.0384 56.5601 35.8284 56.3383C35.385 55.9066 34.615 55.9066 34.1716 56.3383Z" fill="#E83B69" fill-opacity="0.8"/>
<path d="M25.6666 43.1666C25.6666 43.8106 26.1893 44.3332 26.8332 44.3332H31.5C32.1439 44.3332 32.6666 43.8106 32.6666 43.1666V36.1666C32.6666 35.5227 32.1439 35 31.5 35H26.8334C26.1894 35 25.6668 35.5227 25.6668 36.1666V43.1666H25.6666ZM28 37.3334H30.3334V42H28V37.3334Z" fill="#E83B69" fill-opacity="0.8"/>
<path d="M23.3334 50.1667C23.3334 50.8106 23.856 51.3333 24.5 51.3333H28V61.8333C28 62.4773 28.5227 62.9999 29.1666 62.9999C29.8106 62.9999 30.3332 62.4773 30.3332 61.8333V51.3333H39.6666V61.8333C39.6666 62.4773 40.1893 62.9999 40.8332 62.9999C41.4772 62.9999 41.9999 62.4773 41.9999 61.8333V51.3333H45.4999C46.1438 51.3333 46.6665 50.8106 46.6665 50.1667C46.6665 49.5227 46.1438 49.0001 45.4999 49.0001H24.5C23.856 49.0001 23.3334 49.5227 23.3334 50.1667Z" fill="#E83B69" fill-opacity="0.8"/>
<path d="M56 43.1666C56 43.8106 56.5227 44.3332 57.1666 44.3332H61.8332C62.4772 44.3332 62.9999 43.8106 62.9999 43.1666V36.1666C62.9999 35.5227 62.4772 35 61.8332 35H57.1666C56.5227 35 56 35.5227 56 36.1666V43.1666ZM58.3334 37.3334H60.6668V42H58.3334V37.3334Z" fill="#E83B69" fill-opacity="0.8"/>
<path d="M50.1666 0H19.8334C19.1894 0 18.6667 0.522676 18.6667 1.16662V61.8332C18.6667 62.4772 19.1894 62.9999 19.8334 62.9999C20.4773 62.9999 21 62.4772 21 61.8332V2.33324H49V61.8332C49 62.4772 49.5227 62.9999 50.1666 62.9999C50.8106 62.9999 51.3332 62.4772 51.3332 61.8332V1.16662C51.3334 0.522676 50.8107 0 50.1666 0Z" fill="#E83B69" fill-opacity="0.8"/>
</svg>
